<?xml version="1.0" encoding="UTF-8" standalone="no"?>
<!DOCTYPE svg PUBLIC "-//W3C//DTD SVG 1.1//EN" "http://www.w3.org/Graphics/SVG/1.1/DTD/svg11.dtd">
<!-- Created with Vectornator (http://vectornator.io/) -->
<svg height="100%" stroke-miterlimit="10" style="fill-rule:nonzero;clip-rule:evenodd;stroke-linecap:round;stroke-linejoin:round;" version="1.1" viewBox="0 0 1024 1024" width="100%" xml:space="preserve" xmlns="http://www.w3.org/2000/svg" xmlns:vectornator="http://vectornator.io" xmlns:xlink="http://www.w3.org/1999/xlink">
<defs/>
<g id="Untitled" vectornator:layerName="Untitled">
<g opacity="1" vectornator:layerName="P">
<g opacity="1" vectornator:layerName="path">
<clipPath clip-rule="nonzero" id="ClipPath">
<path d="M811.657 1001.55L211.626 1001.11L212.343 22.4512L812.374 22.8914L811.657 1001.55Z"/>
</clipPath>
<g clip-path="url(#ClipPath)">
<clipPath clip-rule="nonzero" id="ClipPath_2">
<path d="M45.315 1168.14L978.965 1168.14L978.965-144.137L45.315-144.137L45.315 1168.14Z"/>
</clipPath>
<g clip-path="url(#ClipPath_2)">
<path d="M511.651 996.695C514.142 990.918 515.98 986.858 517.653 982.689C553.669 893.215 594.455 805.9 639.201 720.441C683.543 635.757 727.369 550.872 770.906 465.773C801.487 405.998 814.552 342.536 803.811 275.861C793.216 210.09 763.713 153.209 714.434 107.82C640.548 39.7643 553.296 14.9197 454.714 33.033C388.865 45.1314 333.685 77.9036 289.677 128.259C247.699 176.29 223.072 232.479 217.802 296.03C212.966 354.349 225.052 410.028 251.432 462.287C278.996 516.888 306.543 571.445 335.2 625.477C386.704 722.59 439.441 819.124 481.064 921.092C491.104 945.687 500.993 970.321 511.651 996.695Z" fill="#000000" fill-rule="nonzero" opacity="1" stroke="none" vectornator:layerName="path"/>
</g>
</g>
</g>
<g opacity="1" vectornator:layerName="path">
<clipPath clip-rule="nonzero" id="ClipPath_3">
<path d="M764.582 889.671L258.857 889.3L259.462 64.1538L765.188 64.5249L764.582 889.671Z"/>
</clipPath>
<g clip-path="url(#ClipPath_3)">
<clipPath clip-rule="nonzero" id="ClipPath_4">
<path d="M45.315 1168.14L978.965 1168.14L978.965-144.137L45.315-144.137L45.315 1168.14Z"/>
</clipPath>
<g clip-path="url(#ClipPath_4)">
<path d="M511.728 884.852C513.821 879.989 515.367 876.572 516.772 873.064C547.039 797.759 581.314 724.27 618.917 652.345C656.18 581.071 693.011 509.628 729.598 438.006C755.298 387.696 766.277 334.284 757.25 278.167C748.347 222.812 723.553 174.938 682.142 136.738C620.05 79.4591 546.727 58.5494 463.881 73.794C408.544 83.9764 362.173 111.559 325.189 153.941C289.912 194.365 269.217 241.656 264.788 295.143C260.724 344.227 270.88 391.089 293.05 435.073C316.213 481.027 339.363 526.943 363.444 572.419C406.727 654.154 451.045 735.401 486.024 821.221C494.461 841.922 502.771 862.655 511.728 884.852Z" fill="#5ac4f6" fill-rule="nonzero" opacity="1" stroke="none" vectornator:layerName="path"/>
</g>
</g>
</g>
<g opacity="1" vectornator:layerName="path">
<clipPath clip-rule="nonzero" id="ClipPath_5">
<path d="M279.277 552.193L745.002 552.193L745.002 88.4464L279.277 88.4464L279.277 552.193Z"/>
</clipPath>
<g clip-path="url(#ClipPath_5)">
<path d="M482.208 93.0796C481.981 93.0796 479.108 93.65 475.687 94.2199L441.729 102.451C438.423 103.477 435.579 104.261 435.351 104.375C435.237 104.491 435.101 107.333 435.101 110.754L435.351 130.138C435.349 133.561 432.835 137.672 429.756 139.154L413.9 147.242C410.82 148.953 406.019 148.724 403.281 146.672L387.46 135.376C384.609 133.324 382.193 131.842 382.079 131.956C381.964 132.069 379.579 133.923 376.841 136.089L350.722 158.645C348.213 161.039 346.062 163.092 345.947 163.206C345.834 163.322 347.095 165.935 348.691 169.014L357.671 185.69C359.266 188.768 358.946 193.429 356.78 196.166L345.377 211.916C343.441 214.767 339.106 216.791 335.685 216.335L316.622 213.84C313.2 213.385 310.357 213.156 310.243 213.271C310.13 213.387 308.875 216.136 307.393 219.328L294.85 250.542C293.71 253.85 292.79 256.7 292.676 256.814C292.676 257.042 294.957 258.759 297.807 260.698L313.094 270.96C315.944 272.897 317.769 277.232 317.085 280.653L313.913 302.318C313.571 305.74 310.593 309.622 307.286 310.763L289.826 317.141C286.519 318.282 283.91 319.443 283.911 319.671C283.911 319.901 284.039 322.842 284.267 326.263L287.438 358.761C288.008 362.182 288.358 365.16 288.472 365.388C288.47 365.616 291.316 366.079 294.85 366.421L312.524 368.346C315.943 368.687 319.586 371.773 320.612 375.08L328.737 398.206C329.992 401.401 329.171 406.209 326.777 408.718L314.697 421.831C312.416 424.339 310.486 426.599 310.6 426.713C310.713 426.826 312.196 429.45 314.02 432.414L331.587 458.783C333.639 461.519 335.464 463.9 335.578 464.128C335.691 464.242 338.408 463.315 341.6 462.061L357.671 455.682C360.865 454.429 365.539 455.347 367.933 457.856L387.567 475.886C390.189 478.051 391.679 482.585 390.881 486.006L386.427 502.897C385.514 506.204 384.923 509.054 385.037 509.168C385.15 509.281 387.774 510.764 390.738 512.589L417.997 527.198C421.075 528.68 423.827 529.935 424.055 530.049C424.17 530.165 426.228 527.968 428.509 525.345L439.662 512.482C441.944 509.859 446.51 508.498 449.818 509.524L476.97 516.366C480.392 517.049 483.797 520.357 484.595 523.778L488.479 540.418C489.277 543.838 490.076 546.583 490.19 546.583C490.302 546.582 493.361 546.782 496.782 547.01L505.797 547.473C509.216 547.587 514.913 547.587 518.447 547.473L527.462 547.01C530.884 546.782 533.862 546.583 534.089 546.583C534.318 546.581 535.002 543.726 535.8 540.418L539.684 523.778C540.481 520.357 543.888 517.05 547.309 516.366L574.462 509.524C577.767 508.497 582.301 509.86 584.582 512.482L595.77 525.345C598.051 527.967 599.996 530.049 600.224 530.049C600.337 529.936 603.054 528.68 606.246 527.198L633.505 512.589C636.469 510.764 638.979 509.282 639.207 509.168C639.321 509.055 638.765 506.204 637.853 502.897L633.398 486.006C632.486 482.701 633.975 478.167 636.712 475.886L656.311 457.856C658.704 455.348 663.381 454.428 666.573 455.682L682.643 462.061C685.837 463.315 688.587 464.242 688.701 464.128C688.814 464.014 690.64 461.633 692.692 458.783L710.259 432.414C712.083 429.451 713.566 426.827 713.68 426.713C713.794 426.6 711.975 424.34 709.582 421.831L697.467 408.469C695.186 405.961 694.288 401.185 695.542 397.992L703.631 374.831C704.656 371.523 708.299 368.474 711.72 368.132L729.394 366.172C732.814 365.83 735.694 365.367 735.808 365.139C735.808 364.909 736.235 362.081 736.805 358.546L740.012 326.049C740.24 322.628 740.369 319.65 740.369 319.422C740.025 319.422 737.405 318.281 734.098 317.141L716.637 310.763C713.331 309.621 710.351 305.739 710.009 302.318L706.838 280.653C706.155 277.232 707.978 272.899 710.829 270.96L726.116 260.698C728.966 258.76 731.361 257.042 731.247 256.814C731.246 256.588 730.213 253.85 729.073 250.542L716.53 219.328C715.048 216.135 713.794 213.499 713.68 213.271C713.564 213.043 710.722 213.385 707.301 213.84L688.238 216.335C684.817 216.79 680.37 214.88 678.545 211.916L667.143 196.166C664.976 193.428 664.656 188.769 666.252 185.69L675.232 169.014C676.828 165.934 678.089 163.32 677.975 163.206C677.861 163.093 675.71 161.039 673.2 158.645L647.082 136.089C644.346 133.923 641.958 132.07 641.844 131.956C641.73 131.842 639.201 133.437 636.463 135.376L620.642 146.672C617.793 148.724 612.987 148.953 610.023 147.242L594.167 139.154C590.975 137.673 588.458 133.672 588.573 130.138L588.822 110.754C588.822 107.333 588.8 104.375 588.573 104.375C588.457 104.261 585.502 103.477 582.194 102.451L548.236 94.2199C544.815 93.536 541.829 93.0796 541.715 93.0796C541.487 93.0815 540.14 95.5947 538.544 98.6742L529.635 116.135C528.038 119.214 523.934 121.593 520.513 121.48L503.41 121.48C499.989 121.592 495.769 119.214 494.288 116.135L485.379 98.6742C483.783 95.5957 482.436 93.0796 482.208 93.0796ZM511.962 215.551C569.887 215.551 616.972 262.523 616.972 320.561C616.972 378.601 569.887 425.573 511.962 425.573C454.037 425.573 406.951 378.601 406.951 320.561C406.951 262.523 453.922 215.551 511.962 215.551ZM511.962 252.823C474.447 252.823 444.116 283.154 444.116 320.669C444.116 358.069 474.447 388.514 511.962 388.514C549.476 388.514 579.807 358.183 579.807 320.669C579.807 283.154 549.476 252.823 511.962 252.823Z" fill="#000000" fill-rule="nonzero" opacity="1" stroke="none" vectornator:layerName="path"/>
</g>
</g>
</g>
</g>
</svg>
